<svg data-name="Layer 2" id="Layer_2" viewBox="0 0 100 100" xmlns="http://www.w3.org/2000/svg">
    <path fill="#8B4513" d="M50.89,51.23l0,0-.16-.08a5.72,5.72,0,0,0-5.47.28c-2.92,2-3.1,6.65-.42,10.63A10.69,10.69,0,0,0,49,65.74v.06l.67.23a6.54,6.54,0,0,0,2.25.41,5,5,0,0,0,2.84-.84h0c2.87-1.95,3.06-6.71.42-10.62A10.75,10.75,0,0,0,50.89,51.23Zm-3.59,9a4,4,0,0,0-.24,1.52,9.63,9.63,0,0,1-.6-.79c-2-2.95-2-6.54-.12-7.85a3,3,0,0,1,1.72-.5,4.78,4.78,0,0,1,1.7.35A5,5,0,0,1,51,54c.5.61,1.41,2.16,1.08,3-.18.48-.76.67-1.67.94A4.13,4.13,0,0,0,47.3,60.18Zm6.36,3.76a3.55,3.55,0,0,1-3.11.27,1.61,1.61,0,0,1-.3-.21l-.08-.06a3,3,0,0,1-1-3c.23-.55.84-.75,1.8-1s2.43-.71,3-2.13h0a2.67,2.67,0,0,0,.17-.66C55.52,59.81,55.37,62.78,53.66,63.94Z"/>
    <path fill="#8B4513" d="M72,18.82H63.5V16.14a2.5,2.5,0,0,0-2.5-2.5H39a2.5,2.5,0,0,0-2.5,2.5v2.68H28a3,3,0,0,0-3,3V31a3,3,0,0,0,3,3h3.15l.65,10.62a3,3,0,0,0-1.88.94A3.31,3.31,0,0,0,29,48l1.39,21.45a3.18,3.18,0,0,0,2.4,2.9,2.12,2.12,0,0,0,.69.1h0l.69,11.1a3,3,0,0,0,3,2.81H62.78a3,3,0,0,0,3-2.81l.69-11.1h0a3.17,3.17,0,0,0,3.09-3L71,48a3.36,3.36,0,0,0-.87-2.49,3,3,0,0,0-1.88-.94L68.87,34H72a3,3,0,0,0,3-3V21.82A3,3,0,0,0,72,18.82ZM38.5,16.14a.51.51,0,0,1,.5-.5H61a.51.51,0,0,1,.5.5v2.68h-23ZM63.78,83.42a1,1,0,0,1-1,.94H37.22a1,1,0,0,1-1-.94l-.69-11H64.47Zm4.86-36.53a1.27,1.27,0,0,1,.33,1L67.58,69.31a1.16,1.16,0,0,1-1.09,1.14H33.43l-.14,0a1.17,1.17,0,0,1-.87-1.09L31,47.87a1.27,1.27,0,0,1,.33-1,1,1,0,0,1,.75-.34H67.89A1,1,0,0,1,68.64,46.89ZM33.13,34H66.87l-.65,10.59H33.78ZM73,31a1,1,0,0,1-1,1H28a1,1,0,0,1-1-1V21.82a1,1,0,0,1,1-1H72a1,1,0,0,1,1,1Z"/>
</svg>
